<svg xmlns="http://www.w3.org/2000/svg" width="300" height="282.857" viewBox="0 0 300 282.857"><path d="M134.579 26.868Q133.187 28.022 131.182 35.275c-1.102 3.989 -2.158 7.764 -2.347 8.389 -0.297 0.989 -1.042 0.76 -5.743 -1.768 -14.896 -8.011 -30.362 -12.129 -50.974 -13.57 -7.815 -0.547 -10.458 -0.531 -11.177 0.066C60.208 29 60 31.21 60 38.407v9.235l-3.132 -0.39c-9.507 -1.182 -11.387 -1.249 -12.358 -0.444C43.693 47.488 43.516 49.724 43.516 59.421V71.209H36.287c-6.222 0 -7.316 0.162 -7.849 1.158 -0.347 0.649 -0.647 10.72 -0.68 22.912l-0.063 22.145c-0.001 0.215 -3.405 1.501 -7.566 2.858s-8.314 3.056 -9.231 3.777L9.231 125.37v12.707c0 11.266 0.131 12.825 1.154 13.747 0.635 0.572 4.714 2.033 9.066 3.248l7.912 2.208 0.33 14.492c0.181 7.97 0.57 14.863 0.863 15.316 0.394 0.609 3.615 0.824 12.318 0.824 11.382 0 11.8 0.047 12.223 1.381 0.357 1.124 -0.809 2.649 -6.276 8.204 -5.713 5.805 -6.644 7.046 -6.241 8.317 0.656 2.066 11.426 20.32 13.106 22.211 1.731 1.95 3.147 1.75 12.849 -1.82 4.017 -1.478 7.737 -2.687 8.265 -2.687s2.658 1.58 4.733 3.511l3.772 3.512 -2.093 7.911c-2.404 9.084 -2.538 10.839 -0.94 12.266 2.432 2.171 20.728 11.043 22.795 11.054 1.816 0.009 2.98 -0.93 8.734 -7.054l6.639 -7.064 4.253 1.151c2.339 0.634 4.619 1.377 5.065 1.654 0.447 0.276 1.867 4.341 3.158 9.034 3.344 12.167 2.51 11.653 17.988 11.103 12.705 -0.45 14.107 -0.779 14.881 -3.483 0.168 -0.587 1.376 -4.545 2.685 -8.796l2.38 -7.728 4.491 -1.338c2.47 -0.735 4.904 -1.329 5.409 -1.32s3.736 3.136 7.182 6.947c3.445 3.812 6.945 7.103 7.778 7.315 1.085 0.276 4.411 -1.085 11.738 -4.804 5.623 -2.854 10.801 -5.72 11.508 -6.369 1.724 -1.582 1.632 -3.125 -0.741 -12.524l-2.025 -8.023 3.839 -3.452c2.111 -1.898 4.189 -3.464 4.617 -3.477 0.429 -0.014 4.348 1.309 8.711 2.941 9.338 3.493 10.729 3.622 12.469 1.154 3.884 -5.509 11.998 -20.407 11.998 -22.028 0 -1.427 -1.416 -3.315 -6.317 -8.421C240.64 187.95 240.663 187.912 255.162 187.912c9.227 0 11.293 -0.176 12.154 -1.036 0.877 -0.878 1.036 -3.193 1.036 -15.088v-14.051l5.44 -1.685c2.991 -0.927 6.858 -2.038 8.593 -2.469 4.92 -1.223 5.089 -1.735 5.089 -15.452 0 -9.552 -0.197 -12.185 -0.996 -13.327 -0.682 -0.974 -3.693 -2.312 -9.56 -4.249L268.352 117.731v-21.986c0 -13.894 -0.251 -22.455 -0.682 -23.261 -0.611 -1.142 -1.439 -1.275 -7.912 -1.275H252.527V59.421c0 -9.698 -0.176 -11.933 -0.994 -12.612 -0.971 -0.805 -2.851 -0.738 -12.358 0.444l-3.132 0.39V38.407c0 -6.725 -0.231 -9.426 -0.849 -9.939 -0.964 -0.8 -17.595 -0.007 -25.255 1.204 -13.837 2.188 -27.839 6.934 -37.964 12.868 -2.205 1.292 -4.113 2.246 -4.24 2.119s-1.28 -4.071 -2.562 -8.764c-1.367 -5.005 -2.789 -8.874 -3.439 -9.357 -0.794 -0.591 -4.604 -0.824 -13.436 -0.824 -10.772 0 -12.504 0.146 -13.72 1.154m5.933 6.7c-0.504 0.319 -1.892 3.976 -3.085 8.126l-2.169 7.546 6.431 6.534 6.431 6.534 6.32 -6.458 6.32 -6.458 -1.929 -7.389c-1.12 -4.288 -2.393 -7.735 -3.034 -8.213 -1.284 -0.959 -13.834 -1.142 -15.285 -0.224M66.593 90.942v55.996l3.791 0.404c19.158 2.037 33.649 6.226 48.256 13.948 8.873 4.691 15.46 9.27 21.649 15.05l4.962 4.633 -0.483 -55.706c-0.558 -64.378 0.487 -56.6 -8.768 -65.26 -11.619 -10.871 -24.716 -17.583 -42.452 -21.756 -7.272 -1.71 -18.299 -3.279 -23.165 -3.295L66.593 34.945zm150 -55.271c-15.661 1.633 -32.325 7.216 -44.184 14.802 -5.748 3.677 -14.997 11.738 -18.136 15.806l-2.873 3.725 -0.235 55.493 -0.234 55.493 3.49 -3.376c14.087 -13.627 32.773 -23.157 54.589 -27.841 4.72 -1.013 17.431 -2.738 20.18 -2.738 0.143 0 0.26 -25.22 0.26 -56.044V34.945l-3.791 0.088c-2.085 0.048 -6.165 0.336 -9.066 0.638M50.769 108.547c0 52.548 0.064 55.628 1.154 55.609 0.635 -0.011 3.379 -0.311 6.099 -0.667 7.551 -0.986 26.415 -0.828 34.286 0.287 8.089 1.147 17.692 3.172 23.702 4.999 2.339 0.711 4.373 1.172 4.521 1.024 0.456 -0.456 -13.069 -6.709 -19.016 -8.791 -8.122 -2.844 -18.393 -5.215 -26.35 -6.082 -3.808 -0.415 -8.703 -0.952 -10.879 -1.192l-3.956 -0.437 -0.169 -49.275 -0.169 -49.274 -1.479 -0.351c-0.814 -0.193 -2.889 -0.605 -4.611 -0.915L50.769 52.917zm188.242 -54.552 -2.637 0.401 -0.33 49.451 -0.33 49.451 -3.297 0.453c-1.813 0.249 -6.791 0.789 -11.061 1.2 -13.565 1.304 -26.753 5.163 -39.628 11.593 -4.2 2.098 -7.544 3.907 -7.431 4.019 0.113 0.113 2.338 -0.54 4.946 -1.451 14.397 -5.03 33.789 -7.442 50.536 -6.285 5.44 0.376 11.151 0.872 12.692 1.104l2.802 0.421V53.407l-1.813 0.094c-0.997 0.051 -3 0.274 -4.451 0.495M82.418 62.436c-1.063 0.38 -2.637 2.122 -2.637 2.918 0 0.267 0.466 0.952 1.036 1.522 0.749 0.748 2.349 1.036 5.769 1.038 11.763 0.007 28.332 4.669 36.218 10.193 0.796 0.557 2.265 1.013 3.265 1.013 2.372 0 3.247 -2.702 1.5 -4.632 -1.989 -2.197 -14.196 -7.793 -20.755 -9.514 -8.854 -2.323 -21.36 -3.624 -24.396 -2.54m118.681 0.221c-10.709 1.263 -22.191 5.089 -29.55 9.845 -4.207 2.719 -5.101 4.046 -4.051 6.008 1.011 1.89 2.503 1.582 8.268 -1.712 8.96 -5.118 23.486 -8.871 34.375 -8.881 3.369 -0.003 4.218 -0.23 4.778 -1.275 0.824 -1.54 0.291 -3.156 -1.327 -4.022 -1.353 -0.724 -6.156 -0.709 -12.493 0.038M35.248 78.626c-0.173 0.454 -0.238 23.522 -0.144 51.264l0.171 50.44 11.063 0.181 11.064 0.181 1.298 2.126c1.985 3.254 3.436 8.172 2.909 9.861 -0.257 0.824 -3.121 4.21 -6.365 7.526l-5.898 6.029 3.651 6.169c2.008 3.393 4.035 6.711 4.504 7.373 0.808 1.143 1.263 1.051 8.96 -1.813 4.459 -1.66 8.761 -3.015 9.56 -3.012 0.893 0.004 4.056 2.326 8.211 6.028 6.499 5.791 6.758 6.126 6.756 8.731 -0.001 1.489 -0.742 5.475 -1.648 8.855 -0.905 3.38 -1.646 6.568 -1.646 7.083 0 0.531 3.067 2.466 7.088 4.472l7.088 3.537 6.469 -7.158c4.677 -5.175 6.891 -7.158 7.994 -7.158 2.228 0 17.032 4.569 18.074 5.578 0.488 0.473 1.972 4.678 3.298 9.344l2.41 8.484h16.94l2.273 -7.909c1.251 -4.35 2.704 -8.567 3.231 -9.37 0.543 -0.829 2.168 -1.769 3.76 -2.176 1.542 -0.394 5.527 -1.47 8.856 -2.393 3.329 -0.922 6.618 -1.497 7.311 -1.278 0.692 0.22 2.865 2.393 4.827 4.828s4.558 5.536 5.767 6.889l2.2 2.461 7.196 -3.609c3.958 -1.985 7.197 -3.924 7.197 -4.308s-0.719 -3.572 -1.598 -7.083c-2.524 -10.079 -2.486 -10.759 0.772 -13.832 6.521 -6.15 11.519 -10.024 12.933 -10.024 0.838 0 5.043 1.383 9.344 3.073 6.398 2.514 7.921 2.904 8.372 2.143 0.303 -0.512 2.203 -3.849 4.222 -7.416l3.672 -6.485 -6.418 -6.533c-7.23 -7.359 -7.134 -7.031 -4.265 -14.657 1.025 -2.724 1.908 -4.008 3.056 -4.445 0.924 -0.351 5.827 -0.431 11.476 -0.187l9.862 0.427V78.613l-3.615 -0.452c-1.988 -0.248 -3.916 -0.265 -4.286 -0.037 -0.444 0.275 -0.671 15.964 -0.671 46.507 0 43.227 -0.072 46.129 -1.154 46.696 -0.731 0.383 -3.206 0.271 -6.758 -0.307 -8.405 -1.365 -30.171 -1.915 -37.985 -0.958 -15.665 1.918 -28.798 5.779 -42.784 12.579 -5.077 2.469 -9.824 4.974 -10.549 5.568 -0.953 0.78 -0.557 0.71 1.425 -0.253 4.046 -1.964 11.074 -4.532 15.639 -5.715 11.044 -2.862 27.946 -4.554 38.485 -3.853 6.39 0.425 6.758 0.529 6.758 1.902 0 2.904 -7.389 13.607 -14.176 20.534 -7.359 7.511 -14.846 12.764 -23.428 16.437 -31.605 13.528 -69.14 3.694 -89.614 -23.475 -5.559 -7.377 -8.99 -13.667 -7.996 -14.659 1.2 -1.197 21.859 -0.873 31.038 0.487 9.778 1.448 19.231 3.847 26.146 6.635 3.026 1.22 5.502 2.096 5.502 1.946s-3.815 -2.185 -8.478 -4.522c-20.886 -10.466 -40.765 -14.773 -64.708 -14.019 -6.709 0.212 -14.807 0.849 -17.995 1.417C42.512 172.743 43.516 178.358 43.516 124.263V77.802h-3.976c-2.574 0 -4.088 0.291 -4.292 0.824m166.84 1.189c-7.307 0.713 -13.25 2.19 -19.978 4.964 -12.683 5.23 -18.361 10.457 -13.933 12.827 1.15 0.615 2.006 0.313 5.44 -1.923 9.322 -6.069 20.937 -9.765 32.757 -10.422 3.808 -0.212 7.294 -0.678 7.747 -1.036 1.255 -0.992 0.984 -3.654 -0.451 -4.422 -1.412 -0.756 -3.742 -0.753 -11.582 0.012m-121.623 1.236c-0.898 1.677 -0.221 3.287 1.53 3.638 0.776 0.155 4.536 0.442 8.355 0.638 11.46 0.589 21.934 3.783 31.695 9.665 4.674 2.817 6.267 2.863 6.935 0.201 0.529 -2.106 -0.4 -3.097 -5.927 -6.325 -9.837 -5.745 -22.621 -9.088 -34.751 -9.088 -6.392 0 -7.23 0.136 -7.837 1.271M203.407 96.992c-11.453 0.899 -22.675 4.609 -31.378 10.373 -4.667 3.09 -5.618 4.395 -4.886 6.701 0.634 1.999 3.338 1.64 6.835 -0.908 8.984 -6.546 23.516 -10.944 36.201 -10.956 3.785 -0.004 4.2 -0.146 4.898 -1.677 0.608 -1.335 0.572 -1.861 -0.179 -2.604 -1.327 -1.314 -3.924 -1.524 -11.49 -0.93m-122.879 1.331c-1.129 2.995 0.09 3.876 5.375 3.878 12.752 0.007 27.163 4.213 36.589 10.679 3.173 2.176 4.489 2.185 5.912 0.038 0.915 -1.379 0.843 -1.605 -1.085 -3.405 -3.35 -3.13 -14.689 -8.567 -21.695 -10.404 -4.751 -1.245 -8.721 -1.763 -15.45 -2.015l-9.056 -0.34zM81.231 114.857c-1.211 1.211 -0.942 3.698 0.484 4.46 0.702 0.375 3.614 0.682 6.473 0.682 11.689 0 28.139 5.116 34.992 10.882 2.906 2.445 5.645 2.102 5.922 -0.744 0.171 -1.763 -0.208 -2.364 -2.637 -4.17 -6.918 -5.145 -18.964 -9.669 -29.871 -11.22 -6.439 -0.916 -14.395 -0.859 -15.363 0.109m115.646 0.268c-10.626 1.919 -21.896 6.69 -28.068 11.884 -2.304 1.939 -2.53 4.515 -0.506 5.781 1.251 0.783 1.133 0.839 7.812 -3.632C184.116 123.804 197.379 120 208.048 120c4.107 0 5.745 -0.26 6.521 -1.036 1.215 -1.215 1.28 -1.89 0.353 -3.623 -0.603 -1.126 -1.392 -1.269 -6.758 -1.216 -3.342 0.032 -8.42 0.483 -11.287 1M21.758 127.892l-4.945 1.849 -0.184 8.206 -0.183 8.205 2.491 0.765 5.624 1.727 3.132 0.961v-11.836c0 -6.51 -0.222 -11.812 -0.495 -11.782 -0.272 0.03 -2.72 0.887 -5.44 1.904m246.593 9.884c0 11.877 0.013 11.98 1.386 11.544 0.762 -0.242 3.324 -0.994 5.693 -1.672 2.369 -0.677 4.44 -1.364 4.602 -1.526s0.084 -3.982 -0.172 -8.49l-0.467 -8.195 -4.697 -1.509c-2.583 -0.83 -5.067 -1.65 -5.521 -1.822 -0.641 -0.243 -0.824 2.357 -0.824 11.67m-177.024 48.216c2.006 3.406 10.056 12.067 14.43 15.525 5.695 4.503 16.037 9.928 22.89 12.007 6.976 2.116 14.492 2.951 22.915 2.544 19.346 -0.932 36.215 -9.336 48.469 -24.145 6.208 -7.502 6.471 -6.928 -2.949 -6.421 -15.361 0.827 -27.347 3.285 -41.064 8.42 -3.942 1.476 -7.799 2.536 -8.571 2.356s-4.37 -1.421 -7.996 -2.758c-12.338 -4.549 -26.141 -7.288 -40.489 -8.035 -6.946 -0.361 -8.099 -0.285 -7.634 0.506" fill="white" fill-rule="evenodd"/><path d="M0 141.43v141.43l150.165 -0.166 150.165 -0.166 0.166 -141.264L300.663 0H0zm0.324 0.328c0 77.786 0.076 109.607 0.171 70.714 0.094 -38.893 0.094 -102.535 0 -141.429C0.4 32.151 0.324 63.973 0.324 141.758m134.255 -114.89Q133.187 28.022 131.182 35.275c-1.102 3.989 -2.158 7.764 -2.347 8.389 -0.297 0.989 -1.042 0.76 -5.743 -1.768 -14.896 -8.011 -30.362 -12.129 -50.974 -13.57 -7.815 -0.547 -10.458 -0.531 -11.177 0.066C60.208 29 60 31.21 60 38.407v9.235l-3.132 -0.39c-9.507 -1.182 -11.387 -1.249 -12.358 -0.444C43.693 47.488 43.516 49.724 43.516 59.421V71.209H36.287c-6.222 0 -7.316 0.162 -7.849 1.158 -0.347 0.649 -0.647 10.72 -0.68 22.912l-0.063 22.145c-0.001 0.215 -3.405 1.501 -7.566 2.858s-8.314 3.056 -9.231 3.777L9.231 125.37v12.707c0 11.266 0.131 12.825 1.154 13.747 0.635 0.572 4.714 2.033 9.066 3.248l7.912 2.208 0.33 14.492c0.181 7.97 0.57 14.863 0.863 15.316 0.394 0.609 3.615 0.824 12.318 0.824 11.382 0 11.8 0.047 12.223 1.381 0.357 1.124 -0.809 2.649 -6.276 8.204 -5.713 5.805 -6.644 7.046 -6.241 8.317 0.656 2.066 11.426 20.32 13.106 22.211 1.731 1.95 3.147 1.75 12.849 -1.82 4.017 -1.478 7.737 -2.687 8.265 -2.687s2.658 1.58 4.733 3.511l3.772 3.512 -2.093 7.911c-2.404 9.084 -2.538 10.839 -0.94 12.266 2.432 2.171 20.728 11.043 22.795 11.054 1.816 0.009 2.98 -0.93 8.734 -7.054l6.639 -7.064 4.253 1.151c2.339 0.634 4.619 1.377 5.065 1.654 0.447 0.276 1.867 4.341 3.158 9.034 3.344 12.167 2.51 11.653 17.988 11.103 12.705 -0.45 14.107 -0.779 14.881 -3.483 0.168 -0.587 1.376 -4.545 2.685 -8.796l2.38 -7.728 4.491 -1.338c2.47 -0.735 4.904 -1.329 5.409 -1.32s3.736 3.136 7.182 6.947c3.445 3.812 6.945 7.103 7.778 7.315 1.085 0.276 4.411 -1.085 11.738 -4.804 5.623 -2.854 10.801 -5.72 11.508 -6.369 1.724 -1.582 1.632 -3.125 -0.741 -12.524l-2.025 -8.023 3.839 -3.452c2.111 -1.898 4.189 -3.464 4.617 -3.477 0.429 -0.014 4.348 1.309 8.711 2.941 9.338 3.493 10.729 3.622 12.469 1.154 3.884 -5.509 11.998 -20.407 11.998 -22.028 0 -1.427 -1.416 -3.315 -6.317 -8.421C240.64 187.95 240.663 187.912 255.162 187.912c9.227 0 11.293 -0.176 12.154 -1.036 0.877 -0.878 1.036 -3.193 1.036 -15.088v-14.051l5.44 -1.685c2.991 -0.927 6.858 -2.038 8.593 -2.469 4.92 -1.223 5.089 -1.735 5.089 -15.452 0 -9.552 -0.197 -12.185 -0.996 -13.327 -0.682 -0.974 -3.693 -2.312 -9.56 -4.249L268.352 117.731v-21.986c0 -13.894 -0.251 -22.455 -0.682 -23.261 -0.611 -1.142 -1.439 -1.275 -7.912 -1.275H252.527V59.421c0 -9.698 -0.176 -11.933 -0.994 -12.612 -0.971 -0.805 -2.851 -0.738 -12.358 0.444l-3.132 0.39V38.407c0 -6.725 -0.231 -9.426 -0.849 -9.939 -0.964 -0.8 -17.595 -0.007 -25.255 1.204 -13.837 2.188 -27.839 6.934 -37.964 12.868 -2.205 1.292 -4.113 2.246 -4.24 2.119s-1.28 -4.071 -2.562 -8.764c-1.367 -5.005 -2.789 -8.874 -3.439 -9.357 -0.794 -0.591 -4.604 -0.824 -13.436 -0.824 -10.772 0 -12.504 0.146 -13.72 1.154m5.933 6.7c-0.504 0.319 -1.892 3.976 -3.085 8.126l-2.169 7.546 6.431 6.534 6.431 6.534 6.32 -6.458 6.32 -6.458 -1.929 -7.389c-1.12 -4.288 -2.393 -7.735 -3.034 -8.213 -1.284 -0.959 -13.834 -1.142 -15.285 -0.224M66.593 90.942v55.996l3.791 0.404c19.158 2.037 33.649 6.226 48.256 13.948 8.873 4.691 15.46 9.27 21.649 15.05l4.962 4.633 -0.483 -55.706c-0.558 -64.378 0.487 -56.6 -8.768 -65.26 -11.619 -10.871 -24.716 -17.583 -42.452 -21.756 -7.272 -1.71 -18.299 -3.279 -23.165 -3.295L66.593 34.945zm150 -55.271c-15.661 1.633 -32.325 7.216 -44.184 14.802 -5.748 3.677 -14.997 11.738 -18.136 15.806l-2.873 3.725 -0.235 55.493 -0.234 55.493 3.49 -3.376c14.087 -13.627 32.773 -23.157 54.589 -27.841 4.72 -1.013 17.431 -2.738 20.18 -2.738 0.143 0 0.26 -25.22 0.26 -56.044V34.945l-3.791 0.088c-2.085 0.048 -6.165 0.336 -9.066 0.638M50.769 108.547c0 52.548 0.064 55.628 1.154 55.609 0.635 -0.011 3.379 -0.311 6.099 -0.667 7.551 -0.986 26.415 -0.828 34.286 0.287 8.089 1.147 17.692 3.172 23.702 4.999 2.339 0.711 4.373 1.172 4.521 1.024 0.456 -0.456 -13.069 -6.709 -19.016 -8.791 -8.122 -2.844 -18.393 -5.215 -26.35 -6.082 -3.808 -0.415 -8.703 -0.952 -10.879 -1.192l-3.956 -0.437 -0.169 -49.275 -0.169 -49.274 -1.479 -0.351c-0.814 -0.193 -2.889 -0.605 -4.611 -0.915L50.769 52.917zm188.242 -54.552 -2.637 0.401 -0.33 49.451 -0.33 49.451 -3.297 0.453c-1.813 0.249 -6.791 0.789 -11.061 1.2 -13.565 1.304 -26.753 5.163 -39.628 11.593 -4.2 2.098 -7.544 3.907 -7.431 4.019 0.113 0.113 2.338 -0.54 4.946 -1.451 14.397 -5.03 33.789 -7.442 50.536 -6.285 5.44 0.376 11.151 0.872 12.692 1.104l2.802 0.421V53.407l-1.813 0.094c-0.997 0.051 -3 0.274 -4.451 0.495M82.418 62.436c-1.063 0.38 -2.637 2.122 -2.637 2.918 0 0.267 0.466 0.952 1.036 1.522 0.749 0.748 2.349 1.036 5.769 1.038 11.763 0.007 28.332 4.669 36.218 10.193 0.796 0.557 2.265 1.013 3.265 1.013 2.372 0 3.247 -2.702 1.5 -4.632 -1.989 -2.197 -14.196 -7.793 -20.755 -9.514 -8.854 -2.323 -21.36 -3.624 -24.396 -2.54m118.681 0.221c-10.709 1.263 -22.191 5.089 -29.55 9.845 -4.207 2.719 -5.101 4.046 -4.051 6.008 1.011 1.89 2.503 1.582 8.268 -1.712 8.96 -5.118 23.486 -8.871 34.375 -8.881 3.369 -0.003 4.218 -0.23 4.778 -1.275 0.824 -1.54 0.291 -3.156 -1.327 -4.022 -1.353 -0.724 -6.156 -0.709 -12.493 0.038M35.248 78.626c-0.173 0.454 -0.238 23.522 -0.144 51.264l0.171 50.44 11.063 0.181 11.064 0.181 1.298 2.126c1.985 3.254 3.436 8.172 2.909 9.861 -0.257 0.824 -3.121 4.21 -6.365 7.526l-5.898 6.029 3.651 6.169c2.008 3.393 4.035 6.711 4.504 7.373 0.808 1.143 1.263 1.051 8.96 -1.813 4.459 -1.66 8.761 -3.015 9.56 -3.012 0.893 0.004 4.056 2.326 8.211 6.028 6.499 5.791 6.758 6.126 6.756 8.731 -0.001 1.489 -0.742 5.475 -1.648 8.855 -0.905 3.38 -1.646 6.568 -1.646 7.083 0 0.531 3.067 2.466 7.088 4.472l7.088 3.537 6.469 -7.158c4.677 -5.175 6.891 -7.158 7.994 -7.158 2.228 0 17.032 4.569 18.074 5.578 0.488 0.473 1.972 4.678 3.298 9.344l2.41 8.484h16.94l2.273 -7.909c1.251 -4.35 2.704 -8.567 3.231 -9.37 0.543 -0.829 2.168 -1.769 3.76 -2.176 1.542 -0.394 5.527 -1.47 8.856 -2.393 3.329 -0.922 6.618 -1.497 7.311 -1.278 0.692 0.22 2.865 2.393 4.827 4.828s4.558 5.536 5.767 6.889l2.2 2.461 7.196 -3.609c3.958 -1.985 7.197 -3.924 7.197 -4.308s-0.719 -3.572 -1.598 -7.083c-2.524 -10.079 -2.486 -10.759 0.772 -13.832 6.521 -6.15 11.519 -10.024 12.933 -10.024 0.838 0 5.043 1.383 9.344 3.073 6.398 2.514 7.921 2.904 8.372 2.143 0.303 -0.512 2.203 -3.849 4.222 -7.416l3.672 -6.485 -6.418 -6.533c-7.23 -7.359 -7.134 -7.031 -4.265 -14.657 1.025 -2.724 1.908 -4.008 3.056 -4.445 0.924 -0.351 5.827 -0.431 11.476 -0.187l9.862 0.427V78.613l-3.615 -0.452c-1.988 -0.248 -3.916 -0.265 -4.286 -0.037 -0.444 0.275 -0.671 15.964 -0.671 46.507 0 43.227 -0.072 46.129 -1.154 46.696 -0.731 0.383 -3.206 0.271 -6.758 -0.307 -8.405 -1.365 -30.171 -1.915 -37.985 -0.958 -15.665 1.918 -28.798 5.779 -42.784 12.579 -5.077 2.469 -9.824 4.974 -10.549 5.568 -0.953 0.78 -0.557 0.71 1.425 -0.253 4.046 -1.964 11.074 -4.532 15.639 -5.715 11.044 -2.862 27.946 -4.554 38.485 -3.853 6.39 0.425 6.758 0.529 6.758 1.902 0 2.904 -7.389 13.607 -14.176 20.534 -7.359 7.511 -14.846 12.764 -23.428 16.437 -31.605 13.528 -69.14 3.694 -89.614 -23.475 -5.559 -7.377 -8.99 -13.667 -7.996 -14.659 1.2 -1.197 21.859 -0.873 31.038 0.487 9.778 1.448 19.231 3.847 26.146 6.635 3.026 1.22 5.502 2.096 5.502 1.946s-3.815 -2.185 -8.478 -4.522c-20.886 -10.466 -40.765 -14.773 -64.708 -14.019 -6.709 0.212 -14.807 0.849 -17.995 1.417C42.512 172.743 43.516 178.358 43.516 124.263V77.802h-3.976c-2.574 0 -4.088 0.291 -4.292 0.824m166.84 1.189c-7.307 0.713 -13.25 2.19 -19.978 4.964 -12.683 5.23 -18.361 10.457 -13.933 12.827 1.15 0.615 2.006 0.313 5.44 -1.923 9.322 -6.069 20.937 -9.765 32.757 -10.422 3.808 -0.212 7.294 -0.678 7.747 -1.036 1.255 -0.992 0.984 -3.654 -0.451 -4.422 -1.412 -0.756 -3.742 -0.753 -11.582 0.012m-121.623 1.236c-0.898 1.677 -0.221 3.287 1.53 3.638 0.776 0.155 4.536 0.442 8.355 0.638 11.46 0.589 21.934 3.783 31.695 9.665 4.674 2.817 6.267 2.863 6.935 0.201 0.529 -2.106 -0.4 -3.097 -5.927 -6.325 -9.837 -5.745 -22.621 -9.088 -34.751 -9.088 -6.392 0 -7.23 0.136 -7.837 1.271M203.407 96.992c-11.453 0.899 -22.675 4.609 -31.378 10.373 -4.667 3.09 -5.618 4.395 -4.886 6.701 0.634 1.999 3.338 1.64 6.835 -0.908 8.984 -6.546 23.516 -10.944 36.201 -10.956 3.785 -0.004 4.2 -0.146 4.898 -1.677 0.608 -1.335 0.572 -1.861 -0.179 -2.604 -1.327 -1.314 -3.924 -1.524 -11.49 -0.93m-122.879 1.331c-1.129 2.995 0.09 3.876 5.375 3.878 12.752 0.007 27.163 4.213 36.589 10.679 3.173 2.176 4.489 2.185 5.912 0.038 0.915 -1.379 0.843 -1.605 -1.085 -3.405 -3.35 -3.13 -14.689 -8.567 -21.695 -10.404 -4.751 -1.245 -8.721 -1.763 -15.45 -2.015l-9.056 -0.34zM81.231 114.857c-1.211 1.211 -0.942 3.698 0.484 4.46 0.702 0.375 3.614 0.682 6.473 0.682 11.689 0 28.139 5.116 34.992 10.882 2.906 2.445 5.645 2.102 5.922 -0.744 0.171 -1.763 -0.208 -2.364 -2.637 -4.17 -6.918 -5.145 -18.964 -9.669 -29.871 -11.22 -6.439 -0.916 -14.395 -0.859 -15.363 0.109m115.646 0.268c-10.626 1.919 -21.896 6.69 -28.068 11.884 -2.304 1.939 -2.53 4.515 -0.506 5.781 1.251 0.783 1.133 0.839 7.812 -3.632C184.116 123.804 197.379 120 208.048 120c4.107 0 5.745 -0.26 6.521 -1.036 1.215 -1.215 1.28 -1.89 0.353 -3.623 -0.603 -1.126 -1.392 -1.269 -6.758 -1.216 -3.342 0.032 -8.42 0.483 -11.287 1M21.758 127.892l-4.945 1.849 -0.184 8.206 -0.183 8.205 2.491 0.765 5.624 1.727 3.132 0.961v-11.836c0 -6.51 -0.222 -11.812 -0.495 -11.782 -0.272 0.03 -2.72 0.887 -5.44 1.904m246.593 9.884c0 11.877 0.013 11.98 1.386 11.544 0.762 -0.242 3.324 -0.994 5.693 -1.672 2.369 -0.677 4.44 -1.364 4.602 -1.526s0.084 -3.982 -0.172 -8.49l-0.467 -8.195 -4.697 -1.509c-2.583 -0.83 -5.067 -1.65 -5.521 -1.822 -0.641 -0.243 -0.824 2.357 -0.824 11.67m-177.024 48.216c2.006 3.406 10.056 12.067 14.43 15.525 5.695 4.503 16.037 9.928 22.89 12.007 6.976 2.116 14.492 2.951 22.915 2.544 19.346 -0.932 36.215 -9.336 48.469 -24.145 6.208 -7.502 6.471 -6.928 -2.949 -6.421 -15.361 0.827 -27.347 3.285 -41.064 8.42 -3.942 1.476 -7.799 2.536 -8.571 2.356s-4.37 -1.421 -7.996 -2.758c-12.338 -4.549 -26.141 -7.288 -40.489 -8.035 -6.946 -0.361 -8.099 -0.285 -7.634 0.506" fill="none" fill-rule="evenodd"/></svg>