<svg width="256" height="256" viewBox="0 0 73 73" xmlns="http://www.w3.org/2000/svg"><g stroke-width="0"/><g stroke-linecap="round" stroke-linejoin="round"/><g fill="none"><rect x="-1" y="-1" width="71" height="71" rx="14" transform="translate(2 2)" fill="#FFF" stroke="#383845" stroke-width="2"/><path d="M60.24 17.022H12.66a1.66 1.66 0 0 0-1.66 1.66v8.263h50.9V18.68a1.66 1.66 0 0 0-1.66-1.66m-17.2 7.174a2.216 2.216 0 0 1-2.213-2.213c0-1.22.993-2.213 2.213-2.213s2.213.993 2.213 2.213-.993 2.213-2.213 2.213m6.029 0a2.216 2.216 0 0 1-2.213-2.213c0-1.22.992-2.213 2.213-2.213 1.22 0 2.213.993 2.213 2.213s-.993 2.213-2.213 2.213m6.028 0a2.216 2.216 0 0 1-2.213-2.213c0-1.22.993-2.213 2.213-2.213s2.213.993 2.213 2.213-.992 2.213-2.213 2.213M11 30.264v23.827c0 .916.743 1.66 1.66 1.66h47.58a1.66 1.66 0 0 0 1.66-1.66V30.264zm23.407 14.007-5.433 4.624a1.66 1.66 0 1 1-2.151-2.529l3.947-3.359-3.947-3.359a1.66 1.66 0 0 1 2.151-2.528l5.433 4.623a1.66 1.66 0 0 1 0 2.528m10.595 5.02h-6.557a1.66 1.66 0 0 1 0-3.32h6.557a1.66 1.66 0 0 1 0 3.32" fill="#000"/></g></svg>