<svg width="256" height="256" viewBox="0 0 73 73" xmlns="http://www.w3.org/2000/svg"><g stroke-width="0"/><g stroke-linecap="round" stroke-linejoin="round"/><g fill="none"><rect x="-1" y="-1" width="71" height="71" rx="14" transform="translate(2 2)" fill="#FFF" stroke="#383845" stroke-width="2"/><g transform="translate(16 12)"><path d="M15.743 5.887H.005V2.24A2.24 2.24 0 0 1 2.245 0h11.258a2.24 2.24 0 0 1 2.24 2.24z" fill="#707384" transform="translate(5.906 .336)"/><path fill="#5B5C6C" d="M.005 5.887h15.738v5.887H.005z" transform="translate(5.906 .336)"/><path d="M13.503 17.66H2.245a2.24 2.24 0 0 1-2.24-2.24v-3.646h15.738v3.647a2.24 2.24 0 0 1-2.24 2.24" fill="#707384" transform="translate(5.906 .336)"/><path d="M15.743 2.239v3.648h-3.065V2.239A2.24 2.24 0 0 0 10.438 0h3.065a2.24 2.24 0 0 1 2.24 2.239" fill="#5B5C6C" transform="translate(5.906 .336)"/><path fill="#3B3B47" d="M12.678 5.887h3.065v5.886h-3.065z" transform="translate(5.906 .336)"/><path d="M15.743 11.773v3.648a2.24 2.24 0 0 1-2.24 2.24h-3.065a2.24 2.24 0 0 0 2.24-2.24v-3.648z" fill="#5B5C6C" transform="translate(5.906 .336)"/><path d="M3.566 2.943a.762.762 0 1 1-1.524 0 .762.762 0 0 1 1.524 0" fill="#FFB96A" transform="translate(5.906 .336)"/><path d="M6.332 2.943a.762.762 0 1 1-1.523 0 .762.762 0 0 1 1.523 0" fill="#A7D16C" transform="translate(5.906 .336)"/><path d="M3.566 8.83a.762.762 0 1 1-1.524 0 .762.762 0 0 1 1.524 0" fill="#FFB96A" transform="translate(5.906 .336)"/><path d="M6.332 8.83a.762.762 0 1 1-1.523 0 .762.762 0 0 1 1.523 0" fill="#A7D16C" transform="translate(5.906 .336)"/><path d="M3.566 14.717a.762.762 0 1 1-1.524 0 .762.762 0 0 1 1.524 0" fill="#FFB96A" transform="translate(5.906 .336)"/><path d="M6.332 14.717a.762.762 0 1 1-1.523 0 .762.762 0 0 1 1.523 0" fill="#A7D16C" transform="translate(5.906 .336)"/><path d="M11.089 3.663H13.1a.72.72 0 1 0 0-1.439h-2.01a.72.72 0 1 0 0 1.439m2.011 4.447H11.09a.72.72 0 1 0 0 1.44h2.01a.72.72 0 1 0 0-1.44m.001 5.887H11.09a.72.72 0 1 0 0 1.44h2.01a.72.72 0 1 0 0-1.44" fill="#D7DEED" transform="translate(5.906 .336)"/><path d="M15.743 5.887H.005V2.24A2.24 2.24 0 0 1 2.245 0h11.258a2.24 2.24 0 0 1 2.24 2.24z" fill="#707384" transform="translate(24.281 .336)"/><path fill="#5B5C6C" d="M.005 5.887h15.738v5.887H.005z" transform="translate(24.281 .336)"/><path d="M13.503 17.66H2.245a2.24 2.24 0 0 1-2.24-2.24v-3.646h15.738v3.647a2.24 2.24 0 0 1-2.24 2.24" fill="#707384" transform="translate(24.281 .336)"/><path d="M15.743 2.239v3.648h-3.065V2.239A2.24 2.24 0 0 0 10.438 0h3.065a2.24 2.24 0 0 1 2.24 2.239" fill="#5B5C6C" transform="translate(24.281 .336)"/><path fill="#3B3B47" d="M12.678 5.887h3.065v5.886h-3.065z" transform="translate(24.281 .336)"/><path d="M15.743 11.773v3.648a2.24 2.24 0 0 1-2.24 2.24h-3.065a2.24 2.24 0 0 0 2.24-2.24v-3.648z" fill="#5B5C6C" transform="translate(24.281 .336)"/><path d="M3.566 2.943a.762.762 0 1 1-1.524 0 .762.762 0 0 1 1.524 0" fill="#FFB96A" transform="translate(24.281 .336)"/><path d="M6.332 2.943a.762.762 0 1 1-1.523 0 .762.762 0 0 1 1.523 0" fill="#A7D16C" transform="translate(24.281 .336)"/><path d="M3.566 8.83a.762.762 0 1 1-1.524 0 .762.762 0 0 1 1.524 0" fill="#FFB96A" transform="translate(24.281 .336)"/><path d="M6.332 8.83a.762.762 0 1 1-1.523 0 .762.762 0 0 1 1.523 0" fill="#A7D16C" transform="translate(24.281 .336)"/><path d="M3.566 14.717a.762.762 0 1 1-1.524 0 .762.762 0 0 1 1.524 0" fill="#FFB96A" transform="translate(24.281 .336)"/><path d="M6.332 14.717a.762.762 0 1 1-1.523 0 .762.762 0 0 1 1.523 0" fill="#A7D16C" transform="translate(24.281 .336)"/><path d="M11.089 3.663H13.1a.72.72 0 1 0 0-1.439h-2.01a.72.72 0 1 0 0 1.439m2.011 4.447H11.09a.72.72 0 1 0 0 1.44h2.01a.72.72 0 1 0 0-1.44m.001 5.887H11.09a.72.72 0 1 0 0 1.44h2.01a.72.72 0 1 0 0-1.44" fill="#D7DEED" transform="translate(24.281 .336)"/><path d="M18.788 43.39H.047V32.545c0-.934.756-1.69 1.69-1.69h15.362c.933 0 1.69.756 1.69 1.69z" fill="#54A1FF"/><path d="M17.098 30.855h-2.623c.934 0 1.69.756 1.69 1.69v9.91h2.623v-9.91a1.69 1.69 0 0 0-1.69-1.69" fill="#4A7FDD"/><path fill="#C7CFE2" d="M7.286 44.81h4.263v2.659H7.286z"/><path d="M.047 42.454h18.741v2.318a.41.41 0 0 1-.412.413H.459a.413.413 0 0 1-.412-.413z" fill="#5B5C6C"/><path d="M16.167 42.454v2.318a.41.41 0 0 1-.412.413h2.62a.41.41 0 0 0 .413-.413v-2.318z" fill="#464655"/><path d="M12.469 48.563H6.366a.72.72 0 1 1 0-1.44h6.103a.72.72 0 1 1 0 1.44" fill="#707487"/><path d="M7.783 40.069a.72.72 0 1 1-1.44 0 .72.72 0 0 1 1.44 0m2.332 0a.72.72 0 1 1-1.44 0 .72.72 0 0 1 1.44 0m2.325 0a.72.72 0 1 1-1.44 0 .72.72 0 0 1 1.44 0m2.431 0a.72.72 0 1 1-1.44 0 .72.72 0 0 1 1.44 0m-9.468 0a.72.72 0 1 1-1.439 0 .72.72 0 0 1 1.44 0" fill="#FFF"/><path d="M40.395 47.843h-6.723c-.84 0-1.522-.681-1.522-1.522V32.377c0-.84.682-1.522 1.522-1.522h6.723c.841 0 1.523.681 1.523 1.522V46.32c0 .84-.682 1.522-1.523 1.522" fill="#5B5C6C"/><path d="M41.918 32.377V46.32c0 .84-.682 1.522-1.523 1.522h-1.871c.841 0 1.523-.681 1.523-1.522V32.377c0-.84-.682-1.522-1.523-1.522h1.87c.843 0 1.524.681 1.524 1.522" fill="#464655"/><path d="M40.395 45.858h-6.723c-.84 0-1.522-.681-1.522-1.522v-9.974c0-.84.682-1.522 1.522-1.522h6.723c.841 0 1.523.681 1.523 1.522v9.974c0 .84-.682 1.522-1.523 1.522" fill="#FFD764"/><path d="M41.918 34.361v9.975c0 .84-.682 1.522-1.523 1.522h-.348V32.84h.348c.84 0 1.523.68 1.523 1.521" fill="#FFB442"/><path d="M23.687 23.731H11.153a2.654 2.654 0 0 0-2.651 2.651v1.686a.72.72 0 0 0 1.44 0v-1.686c0-.668.543-1.212 1.211-1.212h23.629c.668 0 1.212.544 1.212 1.212v1.686a.72.72 0 0 0 1.44 0v-1.686c0-1.461-1.19-2.65-2.652-2.65z" fill="#E4EAF7"/><rect fill="#E4EAF7" x="13.125" y="20.344" width="1.313" height="3.938" rx=".656"/><rect fill="#E4EAF7" x="31.5" y="20.344" width="1.313" height="3.938" rx=".656"/></g></g></svg>